<?xml version="1.0" standalone="no"?>
<!DOCTYPE svg PUBLIC "-//W3C//DTD SVG 20010904//EN"
 "http://www.w3.org/TR/2001/REC-SVG-20010904/DTD/svg10.dtd">
<svg version="1.0" xmlns="http://www.w3.org/2000/svg"
 width="700.000000pt" height="700.000000pt" viewBox="0 0 700.000000 700.000000"
 preserveAspectRatio="xMidYMid meet">
<metadata>
Created by potrace 1.11, written by Peter Selinger 2001-2013
</metadata>
<g transform="translate(0.000000,700.000000) scale(0.100000,-0.100000)"
fill="#000000" stroke="none">
<path d="M0 3500 l0 -3500 3500 0 3500 0 0 3500 0 3500 -3500 0 -3500 0 0
-3500z m1990 2170 l0 -100 -220 0 -220 0 0 -540 0 -540 -110 0 -110 0 0 540 0
540 -215 0 -215 0 0 100 0 100 545 0 545 0 0 -100z m312 -362 c3 -415 5 -468
21 -508 40 -100 119 -145 254 -144 70 0 90 4 140 30 49 25 62 38 85 84 40 77
47 181 48 628 l0 372 111 0 110 0 -4 -462 c-4 -500 -5 -507 -62 -623 -32 -66
-109 -139 -181 -172 -90 -41 -220 -59 -331 -45 -114 15 -188 42 -254 94 -91
72 -143 180 -159 331 -11 103 -14 860 -3 870 3 4 55 7 114 7 l108 0 3 -462z
m1535 451 c203 -27 315 -140 330 -334 10 -134 -32 -242 -124 -311 l-42 -32 31
-28 c49 -47 109 -146 217 -361 l101 -203 -120 0 -119 0 -100 198 c-104 205
-152 275 -208 298 -21 9 -72 14 -143 14 l-110 0 0 -255 0 -255 -115 0 -115 0
0 640 0 640 219 0 c121 0 255 -5 298 -11z m1166 -451 c133 -251 246 -460 250
-464 4 -4 7 203 7 459 l0 467 105 0 105 0 0 -640 0 -640 -132 0 -133 0 -245
462 -245 463 -3 -463 -2 -462 -110 0 -110 0 0 640 0 641 135 -3 136 -3 242
-457z m457 -1223 c36 -9 86 -23 113 -31 l47 -16 0 -109 c0 -60 -3 -109 -6
-109 -3 0 -36 13 -72 29 -119 52 -179 65 -292 66 -93 0 -111 -3 -154 -25 -65
-33 -88 -67 -93 -132 -7 -97 35 -135 185 -168 264 -59 320 -80 398 -152 24
-22 56 -66 71 -97 26 -51 28 -66 28 -171 0 -133 -15 -178 -84 -252 -83 -91
-210 -132 -406 -131 -111 1 -147 5 -245 31 -63 16 -127 35 -142 41 l-28 11 0
115 c0 63 2 115 4 115 2 0 46 -20 97 -44 122 -58 203 -78 314 -79 109 -1 178
19 223 66 57 59 61 171 7 227 -41 43 -78 57 -245 95 -184 42 -262 77 -324 146
-61 68 -80 132 -74 248 5 88 21 136 71 203 44 60 153 118 257 138 63 13 273 3
350 -15z m-1660 -392 c0 -219 5 -431 10 -472 24 -180 98 -246 275 -244 128 1
192 38 237 137 23 51 23 54 26 514 l3 462 110 0 109 0 0 -452 c0 -491 -3 -526
-56 -629 -78 -154 -264 -241 -483 -224 -228 17 -361 115 -427 315 -16 49 -18
106 -22 523 l-3 467 110 0 111 0 0 -397z m-109 -1292 c276 -86 437 -398 390
-754 -21 -154 -91 -306 -183 -394 -48 -46 -144 -101 -218 -124 -87 -28 -268
-31 -354 -5 -204 60 -343 207 -402 426 -13 48 -18 104 -18 215 -1 127 3 162
22 230 67 233 228 385 450 425 75 14 238 4 313 -19z m1117 -461 l247 -465 3
468 2 468 108 -3 107 -3 3 -637 2 -638 -137 0 -138 0 -245 463 -245 463 -3
-463 -2 -463 -110 0 -110 0 0 640 0 641 136 -3 136 -3 246 -465z"/>
<path d="M950 5670 l0 -40 220 0 220 0 0 -546 0 -545 53 3 52 3 3 543 2 542
215 0 215 0 0 40 0 40 -490 0 -490 0 0 -40z"/>
<path d="M2132 5273 l3 -438 26 -67 c44 -114 105 -175 218 -220 78 -30 288
-33 371 -4 135 47 211 132 245 278 12 50 15 147 15 476 l0 412 -55 0 -55 0 0
-398 c0 -244 -4 -421 -11 -457 -21 -115 -73 -189 -159 -229 -38 -18 -64 -21
-160 -21 -128 1 -161 10 -224 65 -20 18 -46 51 -57 73 -43 83 -49 149 -49 570
l0 397 -56 0 -55 0 3 -437z"/>
<path d="M3380 5125 l0 -585 55 0 55 0 0 261 0 261 153 -4 c233 -6 249 -19
400 -314 l102 -199 58 -3 58 -3 -101 200 c-116 232 -168 299 -250 326 -50 17
-74 35 -46 35 44 0 134 46 177 89 58 60 73 111 67 229 -3 76 -8 96 -35 142
-19 34 -48 66 -76 86 -75 52 -152 64 -401 64 l-216 0 0 -585z m454 491 c107
-33 158 -106 158 -230 0 -112 -35 -176 -119 -217 -43 -21 -65 -23 -215 -27
l-168 -4 0 246 0 246 148 0 c100 0 164 -5 196 -14z"/>
<path d="M3550 5391 l0 -191 128 0 c113 0 133 3 172 23 57 28 81 71 87 150 6
86 -23 142 -91 176 -41 20 -67 25 -172 29 l-124 5 0 -192z"/>
<path d="M4550 5125 l0 -585 50 0 50 0 0 552 c0 319 4 548 9 543 5 -6 138
-254 296 -552 l287 -543 89 0 89 0 0 585 0 585 -55 0 -55 0 -2 -546 -3 -545
-289 545 -289 546 -89 0 -88 0 0 -585z"/>
<path d="M5080 4036 c-108 -30 -177 -83 -217 -164 -23 -46 -28 -70 -28 -132 0
-93 17 -141 66 -195 53 -57 128 -89 308 -130 160 -36 210 -56 253 -102 80 -84
76 -236 -8 -315 -51 -48 -119 -71 -225 -76 -110 -5 -201 11 -314 57 l-70 28
-3 -45 c-2 -24 1 -49 5 -53 19 -19 213 -61 305 -66 234 -14 399 54 459 190 33
74 33 211 0 280 -53 109 -150 161 -390 213 -68 14 -142 34 -165 44 -86 36
-127 122 -108 219 15 71 52 118 121 150 52 24 66 26 191 26 121 -1 143 -4 213
-28 42 -15 80 -27 82 -27 3 0 5 20 5 44 0 41 -2 45 -33 55 -118 39 -352 53
-447 27z"/>
<path d="M3640 3615 c0 -266 4 -433 11 -467 25 -119 107 -226 204 -268 69 -30
168 -43 269 -37 196 12 314 95 370 261 19 57 20 89 24 494 l3 432 -55 0 -56 0
0 -387 c-1 -498 -12 -570 -105 -651 -62 -55 -98 -66 -226 -66 -109 -1 -118 1
-175 29 -74 38 -116 97 -138 194 -13 58 -16 142 -16 475 l0 406 -55 0 -55 0 0
-415z"/>
<path d="M3407 2230 c-134 -34 -226 -146 -263 -322 -29 -132 -7 -323 48 -431
66 -130 211 -202 360 -177 77 12 124 36 178 90 78 77 116 179 126 335 14 225
-67 410 -211 480 -60 30 -173 41 -238 25z"/>
</g>
</svg>
