<?xml version="1.0" encoding="utf-8"?>
<!-- Generator: Adobe Illustrator 25.0.1, SVG Export Plug-In . SVG Version: 6.00 Build 0)  -->
<svg version="1.1" xmlns="http://www.w3.org/2000/svg" xmlns:xlink="http://www.w3.org/1999/xlink" x="0px" y="0px"
	 viewBox="0 0 469 243" style="enable-background:new 0 0 469 243;" xml:space="preserve">
<style type="text/css">
	.st0{fill:#071443;}
	.st1{fill:none;stroke:#FFFFFF;stroke-width:2;stroke-miterlimit:10;}
	.st2{font-family:'Futura-Bold';}
	.st3{font-size:60px;}
	.st4{fill:#FFFFFF;stroke:#FFFFFF;stroke-width:2;stroke-miterlimit:10;}
</style>
<g id="Laag_1">
	<g>
		<rect x="-406.5" y="-159.5" class="st0" width="1383" height="814"/>
		<path d="M976-159v813H-406v-813H976 M977-160H-407v815H977V-160L977-160z"/>
	</g>
	<text transform="matrix(1 0 0 1 251.1831 85.2529)"><tspan x="0" y="0" class="st1 st2 st3">TURN </tspan><tspan x="90.5" y="60" class="st1 st2 st3">US </tspan><tspan x="68" y="120" class="st4 st2 st3">ON</tspan></text>
</g>
<g id="Laag_2">
	<g id="CJ3lLn.tif">
		
			<image style="overflow:visible;" width="1167" height="2031" id="Laag_1_2_" xlink:href="390CB89FB226EC3A.png"  transform="matrix(9.379887e-02 0 0 9.379887e-02 25 11)">
		</image>
	</g>
	<g id="CJ3lLn.tif_1_">
		
			<image style="overflow:visible;" width="1167" height="2031" id="Laag_1_1_" xlink:href="390CB89FB226EC3E.png"  transform="matrix(9.379887e-02 0 0 9.379887e-02 141 17)">
		</image>
	</g>
	<g id="CJ3lLn.tif_2_">
		
			<image style="overflow:visible;" width="1167" height="2031" id="Laag_1_3_" xlink:href="390CB89FB226EC39.png"  transform="matrix(9.379887e-02 0 0 9.379887e-02 81.7209 47.3721)">
		</image>
	</g>
</g>
</svg>
