<?xml version="1.0" encoding="utf-8"?>
<!-- Generator: Adobe Illustrator 25.0.1, SVG Export Plug-In . SVG Version: 6.00 Build 0)  -->
<svg version="1.1" xmlns="http://www.w3.org/2000/svg" xmlns:xlink="http://www.w3.org/1999/xlink" x="0px" y="0px"
	 viewBox="0 0 250 250" style="enable-background:new 0 0 250 250;" xml:space="preserve">
<style type="text/css">
	.st0{fill:#071443;}
	.st1{fill:none;stroke:#FFFFFF;stroke-width:2;stroke-miterlimit:10;}
	.st2{font-family:'Futura-Bold';}
	.st3{font-size:60px;}
	.st4{fill:#FFFFFF;stroke:#FFFFFF;stroke-width:2;stroke-miterlimit:10;}
	.st5{display:none;}
	.st6{display:inline;}
</style>
<g id="Laag_1">
	<g>
		<rect x="-624.5" y="-156" class="st0" width="1383" height="814"/>
		<path d="M758-155.5v813H-624v-813H758 M759-156.5H-625v815H759V-156.5L759-156.5z"/>
	</g>
	<text transform="matrix(1 0 0 1 33.1831 88.7529)"><tspan x="0" y="0" class="st1 st2 st3">TURN </tspan><tspan x="90.5" y="60" class="st1 st2 st3">US </tspan><tspan x="68" y="120" class="st4 st2 st3">ON</tspan></text>
</g>
<g id="Laag_2" class="st5">
	<g id="CJ3lLn.tif" class="st6">
		
			<image style="overflow:visible;" width="1167" height="2031" id="Laag_1_2_" xlink:href="177C65BA47E305E9.png"  transform="matrix(9.379887e-02 0 0 9.379887e-02 -193 14.5)">
		</image>
	</g>
	<g id="CJ3lLn.tif_1_" class="st6">
		
			<image style="overflow:visible;" width="1167" height="2031" id="Laag_1_1_" xlink:href="177C65BA47E305EB.png"  transform="matrix(9.379887e-02 0 0 9.379887e-02 -77 20.5)">
		</image>
	</g>
	<g id="CJ3lLn.tif_2_" class="st6">
		
			<image style="overflow:visible;" width="1167" height="2031" id="Laag_1_3_" xlink:href="177C65BA47E305EE.png"  transform="matrix(9.379887e-02 0 0 9.379887e-02 -136.2791 50.8721)">
		</image>
	</g>
</g>
</svg>
