<?xml version="1.0" standalone="no"?>
<!DOCTYPE svg PUBLIC "-//W3C//DTD SVG 20010904//EN"
 "http://www.w3.org/TR/2001/REC-SVG-20010904/DTD/svg10.dtd">
<svg version="1.0" xmlns="http://www.w3.org/2000/svg"
 width="1096.000000pt" height="1096.000000pt" viewBox="0 0 1096.000000 1096.000000"
 preserveAspectRatio="xMidYMid meet">
<metadata>
Created by potrace 1.11, written by Peter Selinger 2001-2013
</metadata>
<g transform="translate(0.000000,1096.000000) scale(0.100000,-0.100000)"
fill="#000000" stroke="none">
<path d="M1649 10626 c-1 -17 -3 -51 -5 -76 -2 -25 -5 -85 -8 -135 -3 -49 -7
-119 -10 -155 -3 -36 -8 -108 -11 -160 -3 -52 -8 -131 -11 -175 -3 -44 -7
-109 -9 -145 -2 -36 -6 -105 -9 -155 -3 -49 -8 -133 -11 -185 -3 -52 -8 -117
-10 -145 -2 -27 -6 -93 -9 -145 -4 -52 -8 -124 -11 -160 -3 -36 -8 -112 -11
-170 -11 -200 -13 -225 -19 -320 -10 -147 -14 -217 -21 -325 -17 -297 -23
-393 -29 -460 -8 -108 -18 -289 -19 -347 -1 -32 -3 -58 -6 -58 -3 0 -5 -28 -6
-63 -1 -34 -4 -107 -8 -162 -4 -55 -9 -140 -12 -190 -3 -49 -7 -111 -8 -137
-3 -49 2 -56 49 -65 11 -2 27 -6 35 -10 8 -3 20 -7 25 -8 6 -2 44 -13 85 -26
41 -13 77 -24 80 -24 3 -1 23 -7 45 -13 22 -6 56 -14 75 -17 19 -3 49 -9 65
-12 17 -4 35 -8 40 -9 6 -1 12 -3 15 -4 3 -1 19 -3 35 -5 17 -1 30 -3 30 -4 0
-2 11 -4 25 -7 14 -2 61 -11 105 -19 44 -9 95 -17 112 -19 18 -3 56 -9 85 -15
29 -6 69 -13 88 -15 19 -3 49 -8 65 -11 51 -9 88 -14 130 -20 22 -3 50 -8 62
-10 12 -3 41 -7 65 -10 24 -3 50 -7 58 -10 8 -2 44 -7 80 -10 36 -4 67 -8 70
-10 3 -2 35 -7 70 -10 36 -4 67 -8 70 -10 3 -2 37 -6 75 -10 68 -6 110 -12
110 -15 0 -1 23 -3 51 -5 28 -1 64 -5 80 -9 16 -3 61 -9 99 -12 39 -4 81 -8
95 -10 70 -10 101 -13 170 -18 41 -4 91 -8 110 -10 19 -3 67 -7 105 -11 39 -4
84 -9 100 -11 17 -1 64 -5 105 -8 41 -4 102 -8 135 -11 33 -3 98 -8 145 -11
47 -3 105 -7 130 -9 25 -2 73 -5 108 -6 34 -1 62 -5 62 -8 0 -3 -54 -37 -121
-76 -67 -38 -142 -82 -168 -97 -25 -15 -58 -33 -73 -40 -16 -7 -28 -16 -28
-20 0 -4 -6 -8 -13 -8 -7 0 -28 -11 -47 -23 -19 -13 -55 -35 -80 -49 -90 -50
-119 -67 -159 -92 -22 -15 -44 -26 -48 -26 -3 0 -14 -7 -24 -16 -16 -15 -16
-18 6 -67 13 -29 74 -167 135 -307 137 -311 269 -586 337 -701 66 -111 91
-170 108 -248 15 -72 17 -192 4 -249 -5 -22 -11 -54 -14 -73 -2 -19 -9 -56
-15 -84 -6 -27 -12 -59 -14 -70 -2 -11 -7 -31 -10 -45 -3 -14 -8 -37 -11 -52
-3 -16 -7 -38 -10 -50 -45 -216 -56 -266 -59 -283 -2 -11 -11 -54 -20 -96 -10
-42 -19 -84 -21 -95 -2 -10 -4 -19 -5 -19 -1 0 -3 -9 -5 -20 -3 -23 -6 -40
-33 -157 -11 -48 -17 -90 -14 -93 3 -3 0 -5 -7 -5 -7 0 -10 -3 -8 -7 3 -5 -4
-46 -14 -93 -10 -47 -21 -94 -23 -105 -2 -11 -9 -40 -15 -65 -5 -25 -12 -56
-15 -70 -3 -14 -7 -34 -10 -45 -29 -124 -48 -214 -50 -230 -1 -11 -5 -29 -9
-40 -3 -11 -8 -32 -11 -48 -3 -15 -7 -35 -10 -45 -3 -9 -7 -28 -10 -42 -2 -14
-11 -55 -20 -91 -8 -37 -17 -78 -20 -90 -12 -56 -47 -208 -59 -261 -8 -32 -12
-60 -9 -63 3 -3 0 -5 -7 -5 -7 0 -10 -4 -7 -8 4 -6 -12 -92 -30 -157 -3 -11
-7 -34 -9 -52 -2 -18 -6 -36 -9 -41 -5 -8 -53 -214 -61 -262 -6 -33 -13 -65
-15 -65 -2 0 -10 -37 -14 -65 -2 -14 -6 -32 -9 -40 -3 -8 -18 -69 -32 -135
-15 -66 -29 -129 -31 -140 -16 -66 -16 -64 32 -93 26 -15 52 -33 59 -40 8 -6
18 -12 24 -12 5 0 14 -6 18 -12 4 -7 24 -21 43 -32 19 -10 53 -29 75 -41 58
-33 194 -104 203 -106 4 0 25 -8 47 -17 22 -9 43 -16 48 -14 4 1 7 -2 7 -6 0
-4 21 -14 48 -21 26 -8 54 -18 62 -22 15 -8 122 -41 175 -55 17 -4 32 -8 35
-9 8 -2 112 -25 140 -30 14 -3 48 -8 75 -11 28 -3 57 -8 65 -10 82 -28 853
-20 1155 12 28 2 68 7 90 9 22 2 54 6 70 9 26 4 89 14 150 22 11 1 20 3 20 4
0 1 14 4 30 6 17 3 53 12 81 20 28 8 60 16 70 18 40 9 240 77 264 90 14 8 27
14 30 14 18 1 230 99 240 111 3 3 25 17 50 30 73 38 72 36 49 126 -11 44 -22
93 -25 110 -3 16 -9 48 -15 70 -5 22 -12 51 -15 65 -3 14 -9 41 -14 60 -5 19
-11 46 -14 60 -2 14 -12 57 -21 95 -21 89 -25 104 -31 135 -3 14 -11 49 -19
79 -8 30 -12 58 -9 63 3 4 1 8 -3 8 -5 0 -9 8 -10 18 -1 11 -11 59 -23 108
-12 49 -24 100 -27 114 -8 41 -11 55 -13 60 -1 3 -3 10 -4 15 -1 6 -5 24 -9
40 -4 17 -9 39 -11 50 -3 11 -14 58 -25 105 -12 47 -23 96 -25 110 -3 14 -16
70 -30 125 -14 55 -27 111 -29 125 -3 14 -15 63 -26 110 -12 47 -23 94 -25
105 -2 11 -16 67 -30 124 -15 57 -27 114 -28 127 -1 13 -5 24 -8 24 -3 0 -6 8
-7 18 -1 9 -11 53 -22 97 -11 44 -22 91 -25 105 -4 21 -56 225 -70 280 -3 8
-11 42 -19 75 -9 33 -22 85 -31 117 -8 31 -18 67 -20 80 -3 12 -15 57 -26 98
-12 41 -22 80 -24 85 -1 6 -10 37 -20 70 -10 33 -19 67 -21 75 -3 16 -59 169
-75 205 -12 27 -30 98 -36 143 -8 54 -3 207 6 207 1 0 4 13 6 30 3 16 45 111
94 210 117 239 180 374 180 386 0 5 5 9 10 9 6 0 10 5 10 11 0 6 15 43 34 82
18 40 51 108 71 152 21 44 78 162 126 263 49 100 89 187 89 193 0 5 -37 27
-82 48 -46 21 -128 60 -183 86 -55 26 -131 62 -170 80 -38 18 -110 51 -159 74
-49 23 -87 43 -85 45 2 2 162 6 354 10 193 3 384 8 425 10 155 10 310 24 355
31 17 3 62 8 100 11 39 3 77 10 86 15 9 4 18 6 21 4 3 -4 138 15 218 29 27 5
145 25 195 32 17 3 37 7 45 10 8 3 31 8 50 10 19 3 49 8 65 13 17 4 38 7 48 5
9 -1 17 1 17 5 0 4 6 8 13 8 20 1 77 13 187 40 58 13 112 26 120 27 8 1 35 8
60 15 25 7 53 15 62 16 10 2 62 16 115 31 54 14 103 27 108 28 6 2 44 13 85
26 41 13 77 24 80 25 56 15 98 27 110 32 8 3 22 7 30 9 8 2 36 13 61 24 l45
22 -2 91 c-1 51 -5 200 -8 332 -4 132 -8 330 -11 440 -9 331 -16 631 -19 795
-1 86 -5 160 -8 166 -4 5 -3 16 2 24 4 7 4 24 -1 37 -5 15 -5 23 2 23 6 0 7 5
4 11 -4 6 -9 92 -11 192 -2 100 -6 272 -9 382 -3 110 -7 301 -10 425 -3 124
-8 302 -11 395 -2 94 -5 176 -4 183 0 6 0 18 0 25 1 10 -7 323 -9 414 -1 22
-1 22 -238 23 -758 4 -1433 9 -1531 10 -62 1 -115 0 -118 -3 -4 -3 -16 -2 -28
3 -13 4 -29 4 -36 0 -8 -5 -18 -6 -22 -4 -8 5 -1072 13 -2198 17 -336 1 -528
6 -532 12 -5 7 -8 7 -8 0 0 -12 -59 -13 -78 -1 -7 4 -12 4 -12 -1 0 -4 -20 -8
-45 -8 -25 0 -45 4 -45 8 0 5 -5 5 -12 1 -17 -11 -58 -11 -58 -1 0 4 -8 3 -18
-2 -11 -6 -24 -6 -34 0 -10 6 -19 6 -22 0 -4 -6 -18 -6 -36 -1 -18 5 -30 5
-30 0 0 -6 -10 -6 -22 -1 -26 9 -69 8 -85 -2 -7 -4 -14 -4 -16 0 -6 9 -99 9
-114 0 -6 -4 -13 -4 -16 0 -4 3 -370 7 -814 10 -444 2 -962 5 -1150 6 l-343 3
-1 -30z"/>
</g>
</svg>
